HIERARCHY
ROOT hip
{
	OFFSET 0.000000 0.000000 0.000000
	CHANNELS 6 Xposition Yposition Zposition Xrotation Zrotation Yrotation 
	JOINT abdomen
	{
		OFFSET 0.000000 3.422050 0.000000
		CHANNELS 3 Xrotation Zrotation Yrotation 
		JOINT chest
		{
			OFFSET 0.000000 8.486693 -0.684411
			CHANNELS 3 Xrotation Zrotation Yrotation 
			JOINT neck
			{
				OFFSET 0.000000 10.266162 -0.273764
				CHANNELS 3 Xrotation Zrotation Yrotation 
				JOINT head
				{
					OFFSET 0.000000 3.148285 0.000000
					CHANNELS 3 Xrotation Zrotation Yrotation 
					End Site
					{
						OFFSET 0.000000 3.148289 0.000000
					}
				}
			}
			JOINT lCollar
			{
				OFFSET 3.422053 6.707223 -0.821293
				CHANNELS 3 Yrotation Zrotation Xrotation 
				JOINT lShldr
				{
					OFFSET 3.285171 0.000000 0.000000
					CHANNELS 3 Zrotation Yrotation Xrotation 
					JOINT lForeArm
					{
						OFFSET 10.129278 0.000000 0.000000
						CHANNELS 3 Yrotation Zrotation Xrotation 
						JOINT lHand
						{
							OFFSET 8.486692 0.000000 0.000000
							CHANNELS 3 Zrotation Yrotation Xrotation 
							End Site
							{
								OFFSET 4.106464 0.000000 0.000000
							}
						}
					}
				}
			}
			JOINT rCollar
			{
				OFFSET -3.558935 6.707223 -0.821293
				CHANNELS 3 Yrotation Zrotation Xrotation 
				JOINT rShldr
				{
					OFFSET -3.148289 0.000000 0.000000
					CHANNELS 3 Zrotation Yrotation Xrotation 
					JOINT rForeArm
					{
						OFFSET -10.266159 0.000000 0.000000
						CHANNELS 3 Yrotation Zrotation Xrotation 
						JOINT rHand
						{
							OFFSET -8.349810 0.000000 0.000000
							CHANNELS 3 Zrotation Yrotation Xrotation 
							End Site
							{
								OFFSET -4.106464 0.000000 0.000000
							}
						}
					}
				}
			}
		}
	}
	JOINT lThigh
	{
		OFFSET 5.338403 -1.642589 1.368821
		CHANNELS 3 Xrotation Zrotation Yrotation 
		JOINT lShin
		{
			OFFSET -2.053232 -20.121670 0.000000
			CHANNELS 3 Xrotation Zrotation Yrotation 
			JOINT lFoot
			{
				OFFSET 0.000000 -19.300380 -1.231939
				CHANNELS 3 Xrotation Yrotation Zrotation 
				End Site
				{
					OFFSET 0.000000 -2.463878 4.653993
				}
			}
		}
	}
	JOINT rThigh
	{
		OFFSET -5.338403 -1.642589 1.368821
		CHANNELS 3 Xrotation Zrotation Yrotation 
		JOINT rShin
		{
			OFFSET 2.053232 -20.121670 0.000000
			CHANNELS 3 Xrotation Zrotation Yrotation 
			JOINT rFoot
			{
				OFFSET 0.000000 -19.300380 -1.231939
				CHANNELS 3 Xrotation Yrotation Zrotation 
				End Site
				{
					OFFSET 0.000000 -2.463878 4.653993
				}
			}
		}
	}
}
MOTION
Frames: 8
Frame Time: 0.033264
0.000000 43.528500 0.000000 0.000000 0.000000 0.000000 0.000000 0.000000 0.000000 0.000000 0.000000 0.000000 0.000000 0.000000 0.000000 0.000000 0.000000 0.000000 0.000000 0.000000 0.000000 0.000000 0.000000 0.000000 0.000000 0.000000 0.000000 0.000000 0.000000 0.000000 0.000000 0.000000 0.000000 0.000000 0.000000 0.000000 0.000000 0.000000 0.000000 0.000000 0.000000 0.000000 0.000000 0.000000 0.000000 0.000000 0.000000 0.000000 0.000000 0.000000 0.000000 0.000000 0.000000 0.000000 0.000000 0.000000 0.000000 0.000000 0.000000 0.000000 
-0.309380 36.100254 0.645794 -1.001933 0.000000 0.000000 17.516869 -0.929063 -0.343058 -24.348854 -2.188857 -1.082486 -0.281520 0.000000 0.000000 -0.575270 0.000000 0.000000 -1.799233 11.589976 1.741793 -56.977867 -12.624833 0.376207 -89.410515 -36.242744 -16.718410 -17.054142 21.128506 -14.073555 0.698960 -12.667318 1.082169 56.827209 13.588131 0.296423 85.986038 35.787933 -14.840133 20.608299 -18.196415 -13.493785 -148.209183 56.633011 9.137508 151.937820 31.995871 53.669556 -10.787620 -42.304356 -8.402818 -148.223541 -56.662872 -9.131026 151.929489 -32.034363 -53.694504 -10.797477 42.314533 8.415466 
-0.309380 36.198376 0.683508 -1.778074 0.000000 0.000000 16.795769 -0.929099 -0.343052 -21.441738 -2.188741 -1.082599 -0.559730 0.000000 0.000000 -1.138575 0.000000 0.000000 -2.253515 11.527751 0.827379 -56.553013 -12.813989 0.206536 -88.711792 -36.027451 -16.307964 -16.750738 20.623480 -14.081197 1.207324 -12.565496 0.220173 56.363274 13.724782 0.111634 85.393898 35.555710 -14.495751 20.184298 -17.736601 -13.535261 -147.933258 57.664719 8.696832 151.937820 31.995871 53.669559 -10.931925 -42.961979 -7.799767 -147.948547 -57.693474 -8.691145 151.929489 -32.034363 -53.694504 -10.941163 42.970291 7.811804 
-0.309380 36.296501 0.721222 -2.554787 0.000000 0.000000 16.074209 -0.929136 -0.343046 -18.502808 -2.188618 -1.082707 -0.838048 0.000000 0.000000 -1.702791 0.000000 0.000000 -2.709336 11.472561 -0.088681 -56.127159 -13.001961 0.035257 -88.016624 -35.808064 -15.901741 -16.448128 20.118286 -14.091668 1.717761 -12.471020 -0.643662 55.898506 13.860015 -0.074447 84.804970 35.320530 -14.155209 19.760811 -17.276869 -13.580221 -147.663986 58.699520 8.251890 151.937820 31.995871 53.669559 -11.068378 -43.621429 -7.191744 -147.680252 -58.727184 -8.247000 151.929489 -32.034370 -53.694511 -11.077010 43.627892 7.203171 
-0.309380 36.394623 0.758936 -3.332001 0.000000 0.000000 15.352252 -0.929172 -0.343039 -15.535465 -2.188489 -1.082809 -1.116469 0.000000 0.000000 -2.267893 0.000000 0.000000 -3.166512 11.424460 -1.006189 -55.700306 -13.188727 -0.137621 -87.325027 -35.584621 -15.499789 -16.146263 19.612961 -14.104942 2.230084 -12.383960 -1.509143 55.432892 13.993806 -0.261807 84.219307 35.082451 -13.818523 19.337805 -16.817265 -13.628637 -147.401947 59.737122 7.802154 151.937820 31.995874 53.669556 -11.196696 -44.282570 -6.578508 -147.419144 -59.763649 -7.798043 151.929489 -32.034367 -53.694504 -11.204727 44.287167 6.589321 
-0.309380 36.492744 0.796650 -4.109644 0.000000 0.000000 14.629943 -0.929208 -0.343032 -12.543323 -2.188352 -1.082905 -1.394991 0.000000 0.000000 -2.833855 0.000000 0.000000 -3.624857 11.383502 -1.924945 -55.272457 -13.374269 -0.312092 -86.637093 -35.357185 -15.102166 -15.845117 19.107548 -14.120999 2.744102 -12.304383 -2.376073 54.966446 14.126136 -0.450431 83.636917 34.841507 -13.485722 18.915243 -16.357838 -13.680491 -147.147781 60.777210 7.346995 151.937820 31.995869 53.669548 -11.316584 -44.945244 -5.959807 -147.165955 -60.802612 -7.343654 151.929489 -32.034363 -53.694500 -11.324016 44.947964 5.970000 
-0.309380 36.590866 0.834364 -4.887648 0.000000 0.000000 13.907350 -0.929245 -0.343025 -9.530200 -2.188210 -1.082995 -1.673611 0.000000 0.000000 -3.400652 0.000000 0.000000 -4.084181 11.349724 -2.844743 -54.843624 -13.558561 -0.488147 -85.952827 -35.125813 -14.708921 -15.544643 18.602081 -14.139814 3.259624 -12.232356 -3.244254 54.499226 14.257001 -0.640301 83.057816 34.597763 -13.156812 18.493097 -15.898654 -13.735766 -146.902283 61.819550 6.885711 151.937820 31.995871 53.669556 -11.427717 -45.609264 -5.335364 -146.921387 -61.843784 -6.883129 151.929489 -32.034363 -53.694504 -11.434561 45.610111 5.344937 
-0.309380 36.688992 0.872079 -5.665939 0.000000 0.000000 13.184527 -0.929281 -0.343017 -6.500078 -2.188063 -1.083078 -1.952325 0.000000 0.000000 -3.968256 0.000000 0.000000 -4.544297 11.323165 -3.765379 -54.413837 -13.741595 -0.665776 -85.272339 -34.890594 -14.320112 -15.244812 18.096613 -14.161369 3.776453 -12.167921 -4.113483 54.031208 14.386373 -0.831405 82.482010 34.351261 -12.831814 18.071339 -15.439760 -13.794440 -146.666275 62.863766 6.417459 151.937820 31.995871 53.669556 -11.529774 -46.274498 -4.704895 -146.686340 -62.886864 -6.415634 151.929489 -32.034363 -53.694504 -11.536036 46.273464 4.713848 
